#!OML:ASF F:\VICON\USERDATA\INSTALL\rory3\rory3.ASF
:FULLY-SPECIFIED
:DEGREES
142
root -0.0388214 16.066 -10.9864 1.78389 -1.09266 6.29773
lowerback 13.2828 -0.434936 -10.4531
upperback -4.71522 -2.35854 1.38131
thorax -12.3231 -0.212292 8.02995
lowerneck -10.786 -4.26511 -2.49084
upperneck 18.9481 -5.90551 2.28452
head 7.76097 -2.78676 0.57714
rclavicle 1.13804e-014 -7.95139e-016
rhumerus -45.1794 -7.02109 -78.4191
rradius 20.0465
rwrist 14.4693
rhand -8.81576 21.0701
rfingers 7.12502
rthumb 17.1238 -8.19526
lclavicle 1.13804e-014 -7.95139e-016
lhumerus -34.2444 7.25079 84.7564
lradius 24.5054
lwrist -1.7672
lhand -5.55507 17.9293
lfingers 7.12502
lthumb 20.26 46.8927
rfemur -34.2878 17.075 10.1032
rtibia 35.1227
rfoot -6.36978 -11.5513
rtoes 31.4316
lfemur 17.0631 -9.52774 -31.6903
ltibia 14.6314
lfoot -12.0336 7.88442
ltoes -14.2039
143
root -0.0793333 16.0705 -10.8442 1.58955 -1.0188 6.48107
lowerback 13.1996 -0.396457 -10.601
upperback -4.62458 -2.33446 1.24384
thorax -12.1752 -0.210504 7.94556
lowerneck -10.9924 -4.31851 -2.39381
upperneck 19.1272 -6 2.28536
head 7.85665 -2.82084 0.545445
rclavicle 3.82412e-014 -3.18055e-014
rhumerus -45.2136 -7.74665 -77.9843
rradius 19.8061
rwrist 15.0236
rhand -8.58248 21.3005
rfingers 7.12502
rthumb 17.3483 -7.94527
lclavicle 3.82412e-014 -3.18055e-014
lhumerus -34.4684 6.78847 84.7885
lradius 24.5426
lwrist -1.12393
lhand -5.15098 18.0979
lfingers 7.12502
lthumb 20.6483 47.0195
rfemur -33.7436 16.9111 10.3729
rtibia 35.6887
rfoot -6.57501 -11.2175
rtoes 31.0718
lfemur 16.4295 -8.93998 -31.5419
ltibia 16.6717
lfoot -11.409 7.11266
ltoes -13.445
144
root -0.120053 16.0814 -10.7064 1.4845 -1.18594 6.39613
lowerback 13.1356 -0.294531 -10.555
upperback -4.57214 -2.1839 1.19188
thorax -12.111 -0.152297 7.8225
lowerneck -10.9921 -4.37581 -2.41777
upperneck 19.2735 -6.10034 2.3832
head 7.91174 -2.85964 0.569609
rclavicle 8.12532e-015 2.14687e-014
rhumerus -45.2022 -8.48652 -77.5725
rradius 19.4936
rwrist 15.568
rhand -8.6516 21.8379
rfingers 7.12502
rthumb 17.2818 -7.41373
lclavicle 8.12532e-015 2.14687e-014
lhumerus -34.5834 6.70967 84.6385
lradius 24.4053
lwrist -1.24447
lhand -4.85377 18.4112
lfingers 7.12502
lthumb 20.9339 47.3015
rfemur -33.2912 16.9823 10.8873
rtibia 36.0911
rfoot -6.74561 -10.9601
rtoes 30.3309
lfemur 15.5547 -8.10484 -31.0565
ltibia 18.8064
lfoot -10.6582 6.37329
ltoes -11.4598
145
root -0.160034 16.1006 -10.5647 1.38659 -1.20972 6.31665
lowerback 13.133 -0.249568 -10.5376
upperback -4.62937 -2.12458 1.18138
thorax -12.1898 -0.118484 7.78937
lowerneck -10.083 -4.44176 -2.57525
upperneck 18.8351 -6.19786 2.54249
head 7.61672 -2.91755 0.662944
rclavicle -5.26779e-015 2.62396e-014
rhumerus -45.3729 -8.87466 -77.281
rradius 19.3378
rwrist 15.8771
rhand -8.64366 21.5649
rfingers 7.12502
rthumb 17.2894 -7.68607
lclavicle -5.26779e-015 2.62396e-014
lhumerus -34.9321 6.7445 84.4876
lradius 24.3175
lwrist -1.52356
lhand -4.77881 18.2794
lfingers 7.12502
lthumb 21.0059 47.1618
rfemur -32.6515 17.0529 11.3733
rtibia 36.3282
rfoot -7.00804 -10.7495
rtoes 29.5827
lfemur 14.5185 -7.37379 -30.5696
ltibia 21.1434
lfoot -9.62471 5.71501
ltoes -10.9052
146
root -0.197505 16.1169 -10.4198 1.31731 -1.19225 6.19071
lowerback 13.0193 -0.243785 -10.3829
upperback -4.69459 -2.08009 1.17083
thorax -12.2087 -0.106646 7.67564
lowerneck -9.75075 -4.4734 -2.6961
upperneck 18.851 -6.25002 2.64975
head 7.57155 -2.94529 0.720139
rclavicle 6.36111e-015 1.27222e-014
rhumerus -45.6228 -8.86695 -77.274
rradius 19.3948
rwrist 15.5962
rhand -8.49868 20.8725
rfingers 7.12502
rthumb 17.429 -8.36612
lclavicle 6.36111e-015 1.27222e-014
lhumerus -35.2763 6.9373 84.2543
lradius 24.1772
lwrist -1.74558
lhand -4.5565 18.0992
lfingers 7.12502
lthumb 21.2195 46.9578
rfemur -31.9627 17.0443 11.9028
rtibia 36.4572
rfoot -7.28121 -10.5632
rtoes 29.0221
lfemur 13.3503 -6.64542 -30.0383
ltibia 23.6568
lfoot -8.33647 5.11955
ltoes -11.9274
147
root -0.238646 16.1327 -10.2815 1.29679 -1.10405 5.88131
lowerback 12.933 -0.304586 -10.114
upperback -4.78063 -2.09988 1.24139
thorax -12.253 -0.127588 7.60461
lowerneck -9.84483 -4.396 -2.81988
upperneck 19.1903 -6.14494 2.71243
head 7.70312 -2.89431 0.765959
rclavicle 8.79622e-015 2.38542e-015
rhumerus -45.8251 -8.69855 -77.3466
rradius 19.3512
rwrist 15.3048
rhand -8.70054 20.8299
rfingers 7.12502
rthumb 17.2347 -8.42581
lclavicle 8.79622e-015 2.38542e-015
lhumerus -35.6234 7.15696 84.0584
lradius 24.227
lwrist -1.90706
lhand -4.41213 18.652
lfingers 7.12502
lthumb 21.3582 47.4949
rfemur -31.2556 17.197 12.5956
rtibia 36.4677
rfoot -7.73046 -10.6381
rtoes 28.8421
lfemur 11.9951 -5.72292 -29.1495
ltibia 26.2817
lfoot -6.81791 4.373
ltoes -12.7472
148
root -0.283991 16.1491 -10.1568 1.35031 -0.862642 5.70754
lowerback 12.9665 -0.376387 -10.0915
upperback -4.87505 -2.19325 1.31493
thorax -12.3614 -0.158661 7.70023
lowerneck -9.84652 -4.3312 -3.01667
upperneck 19.393 -6.05821 2.86052
head 7.77886 -2.85178 0.853572
rclavicle 1.82136e-014 1.51076e-014
rhumerus -45.993 -8.34685 -77.5027
rradius 19.5062
rwrist 14.8711
rhand -8.63278 21.2535
rfingers 7.12502
rthumb 17.2999 -7.99654
lclavicle 1.82136e-014 1.51076e-014
lhumerus -35.8466 7.40277 83.8956
lradius 24.1518
lwrist -2.43024
lhand -4.23274 18.7361
lfingers 7.12502
lthumb 21.5304 47.5594
rfemur -30.6291 17.1649 13.1135
rtibia 36.4026
rfoot -8.24705 -10.6938
rtoes 28.9793
lfemur 10.3825 -4.85129 -28.3018
ltibia 28.9942
lfoot -5.25178 3.58132
ltoes -11.8714
149
root -0.320215 16.1624 -10.0302 1.3438 -0.902704 5.3131
lowerback 12.9507 -0.339093 -9.69278
upperback -4.91473 -2.06297 1.37985
thorax -12.4279 -0.120149 7.51732
lowerneck -10.2239 -4.333 -3.07408
upperneck 19.762 -6.07452 2.95462
head 7.97484 -2.84684 0.880894
rclavicle -3.18304e-014 -2.46493e-014
rhumerus -46.1796 -7.94992 -77.8107
rradius 19.8352
rwrist 14.2357
rhand -8.53828 20.8302
rfingers 7.12502
rthumb 17.3908 -8.41183
lclavicle -3.18304e-014 -2.46493e-014
lhumerus -36.0291 7.9113 83.4853
lradius 23.8329
lwrist -3.2344
lhand -4.0835 18.2298
lfingers 7.12502
lthumb 21.6738 47.0366
rfemur -29.9479 17.0244 13.9047
rtibia 36.2211
rfoot -8.4438 -10.5038
rtoes 28.9283
lfemur 8.78317 -3.91905 -27.3698
ltibia 31.8596
lfoot -3.41957 3.24593
ltoes -9.93421
150
root -0.350473 16.1787 -9.8972 1.2338 -1.09475 4.91806
lowerback 12.9702 -0.279882 -9.23757
upperback -4.93668 -1.89686 1.43254
thorax -12.5021 -0.0705006 7.2809
lowerneck -10.5901 -4.32861 -3.02844
upperneck 20.0459 -6.0678 2.90198
head 8.1325 -2.83813 0.84643
rclavicle 1.20762e-014 1.03368e-014
rhumerus -46.2544 -7.64097 -78.0548
rradius 19.9245
rwrist 13.7498
rhand -8.64453 20.6774
rfingers 7.12502
rthumb 17.2886 -8.57362
lclavicle 1.20762e-014 1.03368e-014
lhumerus -36.2194 8.4894 83.0454
lradius 23.6341
lwrist -3.40748
lhand -3.93715 18.2582
lfingers 7.12502
lthumb 21.8143 47.0487
rfemur -29.1469 17.0827 14.6923
rtibia 35.9884
rfoot -8.6256 -10.327
rtoes 29.0257
lfemur 7.26676 -2.90545 -26.4948
ltibia 34.7668
lfoot -1.19146 3.07114
ltoes -8.59083
151
root -0.387427 16.1904 -9.77201 1.22014 -0.925358 4.48607
lowerback 12.896 -0.355339 -8.82957
upperback -4.92162 -1.90671 1.5104
thorax -12.4389 -0.108812 7.13335
lowerneck -10.6268 -4.33106 -2.95274
upperneck 19.9715 -6.08188 2.90296
head 8.11228 -2.83921 0.832552
rclavicle 3.90115e-015 -1.74931e-014
rhumerus -46.161 -7.46617 -78.2599
rradius 19.9979
rwrist 13.4515
rhand -8.41478 21.1193
rfingers 7.12502
rthumb 17.5097 -8.11214
lclavicle 3.90115e-015 -1.74931e-014
lhumerus -36.2126 9.08617 82.5326
lradius 23.2687
lwrist -3.32576
lhand -3.9077 17.4263
lfingers 7.12502
lthumb 21.8426 46.2135
rfemur -28.3503 17.0279 15.5041
rtibia 35.6946
rfoot -8.8868 -10.4124
rtoes 28.3053
lfemur 5.53873 -2.25179 -25.5265
ltibia 37.7201
lfoot 0.933364 2.58016
ltoes -7.21062
152
root -0.423839 16.2034 -9.6458 1.27712 -0.496532 4.14577
lowerback 12.7571 -0.454724 -8.44529
upperback -4.9089 -1.95474 1.53087
thorax -12.334 -0.168537 6.93986
lowerneck -10.5186 -4.44168 -2.83725
upperneck 19.7749 -6.24802 2.88539
head 8.02799 -2.91424 0.794359
rclavicle 6.95746e-015 2.78299e-015
rhumerus -46.0828 -7.27557 -78.54
rradius 20.162
rwrist 13.0199
rhand -8.24353 21.5298
rfingers 7.12502
rthumb 17.6745 -7.68691
lclavicle 6.95746e-015 2.78299e-015
lhumerus -36.1801 9.37877 82.1341
lradius 22.9841
lwrist -3.25216
lhand -3.8155 16.2974
lfingers 7.12502
lthumb 21.9311 45.0743
rfemur -27.5158 16.6856 16.197
rtibia 35.3174
rfoot -9.24909 -10.3613
rtoes 28.3872
lfemur 3.7417 -1.86478 -24.6819
ltibia 40.6218
lfoot 3.10049 2.16285
ltoes -4.57087
153
root -0.460549 16.2276 -9.52334 1.3723 -2.45201e-006 3.88914
lowerback 12.8008 -0.568957 -8.22198
upperback -5.0004 -2.06875 1.59626
thorax -12.4464 -0.227446 6.91585
lowerneck -9.85865 -4.55254 -2.94203
upperneck 19.2904 -6.39257 2.95389
head 7.75867 -2.99747 0.838724
rclavicle -1.96797e-014 -1.59028e-015
rhumerus -46.104 -6.84634 -78.8365
rradius 20.33
rwrist 12.4145
rhand -8.40389 21.2656
rfingers 7.12502
rthumb 17.5202 -7.96496
lclavicle -1.96797e-014 -1.59028e-015
lhumerus -36.4422 9.34813 82.1209
lradius 23.066
lwrist -3.85156
lhand -4.11682 16.105
lfingers 7.12502
lthumb 21.6418 44.9156
rfemur -26.6789 16.2268 16.7808
rtibia 34.857
rfoot -9.53408 -10.3019
rtoes 28.5166
lfemur 1.82778 -1.51849 -23.9029
ltibia 43.4676
lfoot 5.30753 1.92293
ltoes -2.48012
154
root -0.493074 16.2563 -9.40019 1.37633 0.426731 3.54815
lowerback 12.8868 -0.652903 -7.8697
upperback -5.03059 -2.11949 1.65694
thorax -12.5279 -0.27121 6.79887
lowerneck -9.22601 -4.64944 -3.1452
upperneck 18.866 -6.53526 3.18118
head 7.5251 -3.07162 0.950671
rclavicle -1.64246e-014 1.47101e-014
rhumerus -46.0914 -6.32147 -79.2555
rradius 20.5866
rwrist 11.4981
rhand -8.41639 21.0668
rfingers 7.12502
rthumb 17.5082 -8.1648
lclavicle -1.64246e-014 1.47101e-014
lhumerus -36.6346 9.19155 82.2284
lradius 23.2948
lwrist -4.2162
lhand -4.44973 16.6476
lfingers 7.12502
lthumb 21.322 45.4947
rfemur -25.7148 15.9209 17.4597
rtibia 34.3245
rfoot -9.80364 -10.3619
rtoes 28.0069
lfemur 0.00251849 -1.25271 -23.1305
ltibia 46.213
lfoot 7.60447 1.95377
ltoes -1.90606
